<svg xmlns="http://www.w3.org/2000/svg" xmlns:xlink="http://www.w3.org/1999/xlink" viewBox="0 0 283.46 28.23"><defs><style>.white{fill: #fff;}.cls-1{fill:none;}.cls-2{isolation:isolate;}.cls-3{fill:#df0011;}.cls-4{fill:#fff;}.cls-5{fill:#231815;}.cls-6{clip-path:url(#clip-path);}.cls-7{fill:url(#linear-gradient);}.cls-8{fill:#d1d1d2;}.cls-9{opacity:0.3;}.cls-14,.cls-9{mix-blend-mode:multiply;}.cls-10{clip-path:url(#clip-path-2);}.cls-11{clip-path:url(#clip-path-4);}.cls-12{fill:url(#linear-gradient-2);}.cls-13{fill:#d1d2d2;}.cls-14{opacity:0.5;}.cls-15{clip-path:url(#clip-path-5);}.cls-16{fill:#221714;}.cls-17{fill:#808081;}</style><clipPath id="clip-path"><path class="cls-1" d="M185.74,1.43s-3.68.64-3.68,3.68V24.32a3.2,3.2,0,0,0,3.27,3.27l93.34-.08c3.52,0,4.15-4.48,4.15-4.48V5.27c0-3.84-3.83-3.84-3.83-3.84Z"/></clipPath><linearGradient id="linear-gradient" x1="116.46" y1="590.28" x2="117.73" y2="590.28" gradientTransform="matrix(0, 19.65, 19.65, 0, -11369.18, -2286.36)" gradientUnits="userSpaceOnUse"><stop offset="0" stop-color="#f8f8f8"/><stop offset="0.16" stop-color="#f8f8f8"/><stop offset="1" stop-color="#cbcccc"/></linearGradient><clipPath id="clip-path-2"><rect class="cls-1" x="181.42" y="0.79" width="102.04" height="27.44"/></clipPath><clipPath id="clip-path-4"><path class="cls-1" d="M185.33,28.23h0a3.77,3.77,0,0,1-3.91-3.91V5.11c0-2.82,2.75-4.06,4.21-4.31H279a4.31,4.31,0,0,1,4.47,4.48V23.13c-.25,1.73-1.58,5-4.79,5Zm.47-26.16c-.41.09-3.1.73-3.1,3V24.32A2.53,2.53,0,0,0,185.33,27l93.34-.08c2.78,0,3.44-3.44,3.52-3.89V5.27A3.08,3.08,0,0,0,279,2.07Z"/></clipPath><linearGradient id="linear-gradient-2" x1="150.75" y1="619.09" x2="152.01" y2="619.09" gradientTransform="matrix(0, -21.23, -21.23, 0, 13375.01, 3227.96)" gradientUnits="userSpaceOnUse"><stop offset="0" stop-color="#a5a6a6"/><stop offset="0.84" stop-color="#f8f8f8"/><stop offset="1" stop-color="#f8f8f8"/></linearGradient><clipPath id="clip-path-5"><rect class="cls-1" x="186.38" y="3.85" width="92.07" height="21.21"/></clipPath></defs><g class="cls-2"><g id="圖層_2" data-name="圖層 2"><g id="圖層_1-2" data-name="圖層 1"><path class="white" d="M33.34,19c.1,0,.16.1.16.15a.36.36,0,0,1-.13.25,14.34,14.34,0,0,1-1.84,2.74l-1.33-.63a9.8,9.8,0,0,0,2-3.07Zm4-.75H30.89V8h6.42Zm-1.4-9H32.28V11h3.63Zm0,2.91H32.28V14h3.63Zm0,3.07H32.28V17h3.63Zm2.23,6L36.81,22a12.8,12.8,0,0,1-2.17-3l1.27-.57a9.47,9.47,0,0,0,2.23,2.74m4-10.75V7.53l1.58.2c.16,0,.26.08.26.19s-.13.28-.38.44v2.1H45v1.4h-1.4v8.46a1.59,1.59,0,0,1-.71,1.43,5.6,5.6,0,0,1-3,.49l-.57-1.47h1.79c.62,0,1-.23,1-.7V13.44a25.77,25.77,0,0,1-1.24,2.92,19.08,19.08,0,0,1-2.39,3.52l-1.27-1.14a18.56,18.56,0,0,0,2.67-3.34,23.3,23.3,0,0,0,1.59-3.54H37.7v-1.4Z"/><path class="white" d="M60.79,8V22.17H59.4v-.46H48.64v.46h-1.4V8Zm-6.4,12.59-.46-1.15h.88c.31,0,.49-.12.52-.38v-.51H52.27a11.16,11.16,0,0,1,1.14,1l-.81.77A10.93,10.93,0,0,0,51.13,19l.49-.44H49.23v-1h6.1v-.86c-1.43.13-3.14.26-5.16.4-.1.13-.18.2-.24.2s-.13-.05-.15-.18L49.54,16c1.3,0,2.57-.1,3.81-.16v-.67H50.3V11.36h3.05V10.9h-4v-1h4V9.32l1.2.08c.21,0,.33.07.33.17s-.09.19-.25.32H58.7v1H54.63v.46h3V15A16.93,16.93,0,0,1,59,16.7l-.94.63c-.2-.3-.38-.6-.57-.86-.29,0-.59.07-.9.08v1h2.28v1H56.6v.7a1.31,1.31,0,0,1-.42,1.09.91.91,0,0,1-.47.25H59.4V9.13H48.64V20.58Zm-1-8.34H51.64v.63h1.71Zm0,1.4H51.64v.63h1.71Zm1.28-.77h1.71v-.63H54.63Zm1.71.77H54.63v.63h1.71Zm.07,1.53H54.63v.59c.75,0,1.47-.09,2.19-.15l-.41-.44"/><path class="white" d="M66.33,13.7l-.94,1a18.54,18.54,0,0,0-2.49-1.86l1-1a13.62,13.62,0,0,1,2.4,1.84m.83,3.83a40,40,0,0,1-2.67,4.12c0,.34-.11.52-.31.52l-1.22-1a27.76,27.76,0,0,0,3.31-4.7Zm.45-8.14-1,1a18.94,18.94,0,0,0-2.54-1.84l1-1a14.44,14.44,0,0,1,2.48,1.86m4,.94V7.53L73,7.64c.25,0,.38.1.38.22s-.1.21-.26.37v2.1h3.56v1.34H73.08v2.6h4.46v1.34H67.16V14.27h4.47v-2.6h-3.5V10.33Zm.78,6c.19,0,.29.1.29.2s-.1.19-.26.33a18.16,18.16,0,0,1-1.61,2.93c1.3-.12,2.6-.26,3.88-.43-.41-.58-.82-1.12-1.24-1.63l1-.83a24.75,24.75,0,0,1,3.25,4.4l-1.33.9c-.29-.57-.6-1.11-.9-1.6-1.63.26-4,.57-7.13,1-.1.2-.21.31-.31.31s-.18-.1-.19-.26l-.38-1.58L69,20a15.56,15.56,0,0,0,2.31-4Z"/><path class="white" d="M87.5,7.73c.27,0,.42.06.42.19s-.13.34-.39.51v.89a21.61,21.61,0,0,1-.24,3.37,15.13,15.13,0,0,0,2.06,3.88,19.33,19.33,0,0,0,4.73,4.26L92.24,22A25.22,25.22,0,0,1,88,17.2a17.11,17.11,0,0,1-1.2-2.31c-.07.18-.12.34-.17.47a10.53,10.53,0,0,1-2.72,3.95,18.13,18.13,0,0,1-3.35,2.6l-1.34-1.2a18.48,18.48,0,0,0,3.16-2.19,9.6,9.6,0,0,0,2.53-3.2,14.51,14.51,0,0,0,1.12-6V8.8a10.82,10.82,0,0,0-.11-1.2Z"/><path class="white" d="M99.49,8.43v-1l1.36.11c.24,0,.37.1.37.21s-.1.21-.26.38v.26H105v-1l1.34.11q.39,0,.39.21c0,.08-.1.21-.26.38v.26h3.63V9.5H106.5v.59H105V9.5H101v.83H99.49V9.5H95.62V8.43Zm7.35,3c-1.11.1-2.22.18-3.32.25v.73h6v1.09h-6V14h4.57v4.31h-4.57v.59h4.82v1h-4.82v.57h6.1v1.14H96.12V20.51h6.06v-.57H97.52v-1h4.66v-.59H97.72V14h4.46v-.57H96.25V12.37h5.93v-.64c-1.37.08-2.75.15-4.14.2l-.83-1.14c2,0,3.75-.1,5.18-.2s2.9-.19,4.81-.39l.93.88a.3.3,0,0,1,.09.21c0,.1-.06.13-.19.13l-.36-.08c-.23,0-.51,0-.83.05m-4.66,3.71H99.12v.64h3.06Zm0,1.53H99.12v.64h3.06Zm1.34-.89h3.17V15.1h-3.17Zm3.17.89h-3.17v.64h3.17Z"/><path class="white" d="M123.33,9.32c-.73.17-1.47.3-2.18.41a.3.3,0,0,0-.07.1,32.23,32.23,0,0,0,.2,3.74h4V15h-3.84a11.62,11.62,0,0,0,.39,1.75,8.36,8.36,0,0,0,1.58,3c.31.34.57.51.8.51s.66-.66,1.2-2l1.16,1c-.9,1.9-1.66,2.87-2.3,2.87A3,3,0,0,1,122.5,21a9.88,9.88,0,0,1-2.17-4.32A13.35,13.35,0,0,1,120,15h-5v4.42a38.59,38.59,0,0,0,4.14-1.05v1.34c-1.32.44-3.37,1-6.17,1.73-.12.19-.23.3-.33.3s-.18-.09-.19-.25L112,19.88c.48-.07.95-.13,1.4-.22V8.56l1.08.53a39.74,39.74,0,0,0,4.3-.37c1.27-.15,2.85-.44,4.74-.86l1.09,1.07a.41.41,0,0,1,.11.26c0,.1-.06.13-.18.13l-.44-.09a4.43,4.43,0,0,0-.81.09m-3.65.64c-1.55.23-3.11.4-4.71.54v3.07h4.89c-.1-1.06-.16-2.26-.18-3.61"/><path class="white" d="M132,8.56V7.35l1.29.1c.22,0,.35.1.35.21s-.08.18-.24.33v.57h4.25V7.35l1.29.1c.24,0,.37.1.37.21s-.1.18-.26.33v.57h2.61V9.83H139v4.9h3.57V16h-3.67a6.86,6.86,0,0,0,1.19,1.16,12,12,0,0,0,3.11,1.58l-1.4,1.07a10.82,10.82,0,0,1-2.43-1.47,3.47,3.47,0,0,1-.5-.42v1h-2.74v1.51h5.36v1.27h-12V20.44h5.29V18.93H132V18a.39.39,0,0,0-.09.08,16.88,16.88,0,0,1-2.9,1.83l-1.27-1.14a16.7,16.7,0,0,0,3.17-1.62A8.57,8.57,0,0,0,132.31,16h-4V14.73H132V9.83h-2.49V8.56Zm2.8,9.15v-1.4l1.29.11c.23,0,.35.1.35.21s-.09.18-.26.31v.77h2.53A8.18,8.18,0,0,1,137.34,16h-3.5a13.93,13.93,0,0,1-1.51,1.71Zm2.85-7.88h-4.25v.89h4.25Zm0,2h-4.25v.89h4.25Zm0,2h-4.25v1h4.25Z"/><path class="white" d="M153,7.77c.18.09.28.18.28.28s-.15.18-.44.25a1.57,1.57,0,0,0-.18.19,9.27,9.27,0,0,0,2.7,2.28,11.63,11.63,0,0,0,3.9,1.6l-1.21,1.53a18.16,18.16,0,0,1-3.81-2.12,12.07,12.07,0,0,1-2.39-2.44c-.74.75-1.45,1.45-2.15,2.07a29.06,29.06,0,0,1-4,2.75L144.37,13a17.93,17.93,0,0,0,4-2.41,22.84,22.84,0,0,0,3.31-3.3Zm2.25,5v1.33h-2.74V15.8h4.6v1.27h-4.6v3.5h2.22l-1.06-.5a7.69,7.69,0,0,0,1.58-2.49l1.19.55q.15.07.15.15a.37.37,0,0,1-.12.26,12.31,12.31,0,0,1-1.35,2h3.26v1.34H145.14V20.57h3.45c-.46-.78-1-1.56-1.48-2.34l1.27-.65c.55.85,1,1.68,1.46,2.49l-.81.5h2v-3.5h-4.66V15.8H151V14.09h-2.8V12.76Z"/><path class="white" d="M169.2,7.68q.24.09.24.24c0,.1-.09.17-.29.21a14.05,14.05,0,0,0,3.06,1.32,21.11,21.11,0,0,0,3.34.82l-1,1.4a25.87,25.87,0,0,1-3.78-1.3A15.55,15.55,0,0,1,168,8.79c-.78.47-1.53.89-2.26,1.28a33,33,0,0,1-4.22,1.66l-1.14-1a25.3,25.3,0,0,0,4.2-1.48,22.26,22.26,0,0,0,3.44-2ZM174,12.24v4.33h-1.4v-.38h-9v.38h-1.4V12.24ZM172.7,17v5.1h-1.46v-.46h-6.31v.52h-1.46V17ZM165,15a9.89,9.89,0,0,0-.54-1.27l1.14-.26a14.38,14.38,0,0,1,.64,1.53h1V13.39h-3.76V15Zm6.21,3h-6.31v.89h6.31Zm0,1.84h-6.31v.76h6.31Zm-.33-8.41h-5.85v-1h5.85ZM169.57,15l.83-1.53.95.45c.13.07.19.13.19.2s-.08.23-.24.31l-.39.57h1.66V13.39h-4V15Z"/><path class="cls-3" d="M27.67,10.46,17.19,2A4,4,0,0,0,12.4,2L1.92,10.46c-1.32,1.07-.87,1.95,1,1.95h2v9a1.53,1.53,0,0,0,1.53,1.51H23.14a1.52,1.52,0,0,0,1.53-1.51v-9h2c1.86,0,2.31-.88,1-1.95"/><path class="cls-4 white" d="M6.46,24.05a2.68,2.68,0,0,1-2.68-2.67V13.56H2.91a4.79,4.79,0,0,1-1.4-.18,2.23,2.23,0,0,1-1.17-.77,1.79,1.79,0,0,1-.34-1,2.17,2.17,0,0,1,.38-1.16,4.06,4.06,0,0,1,.81-.85L11.67,1.06a5.12,5.12,0,0,1,6.24,0L28.4,9.57a3.77,3.77,0,0,1,.8.85,2.08,2.08,0,0,1,.38,1.16,1.66,1.66,0,0,1-.34,1,2,2,0,0,1-.75.61,4.09,4.09,0,0,1-1.81.34h-.86v7.82a2.68,2.68,0,0,1-2.68,2.67ZM4.93,11.25a1.17,1.17,0,0,1,.82.34,1.15,1.15,0,0,1,.34.82v9a.37.37,0,0,0,.37.36H23.14a.38.38,0,0,0,.37-.36v-9a1.16,1.16,0,0,1,1.16-1.16h2.14L16.46,2.85a2.71,2.71,0,0,0-1.67-.54,2.66,2.66,0,0,0-1.66.54L2.78,11.25H4.93ZM27.67,9.67l-.63.77Z"/><path class="cls-3" d="M27.67,10.46,17.19,2A4,4,0,0,0,12.4,2L1.92,10.46c-1.32,1.07-.87,1.95,1,1.95h2v9a1.53,1.53,0,0,0,1.53,1.51H23.14a1.52,1.52,0,0,0,1.53-1.51v-9h2c1.86,0,2.31-.88,1-1.95"/><path class="cls-4" d="M21.9,13.85a7,7,0,1,1-7-7,7,7,0,0,1,7,7"/><rect class="cls-5" x="19.99" y="13.75" width="0.35" height="2.09"/><rect class="cls-5" x="20.6" y="13.75" width="0.34" height="2.09"/><rect class="cls-5" x="9.33" y="13.75" width="10.37" height="2.09"/><path class="cls-5" d="M16.89,8.7V9s-.8.2-.8.86a1,1,0,0,0,1.19,1v.43c0,.65-.06.79.71.79h1.15c.45,0,.85.18.85.75v.64h-.3v-.48c0-.25,0-.62-.6-.62H17.68c-.26,0-.67,0-.67-.53V11s-1.23,0-1.23-1.15A1.17,1.17,0,0,1,16.89,8.7"/><path class="cls-5" d="M17.52,9.09v.29a1,1,0,0,1,.92.71,1.26,1.26,0,0,1-.13,1s-.17.19.09.21a4.25,4.25,0,0,1,1.48.16c.28.16.44.32.44,1.12v.84h.29v-.84a1.49,1.49,0,0,0-.3-1.15c-.39-.38-.81-.4-1.69-.4a1.59,1.59,0,0,0,0-1.14,1.36,1.36,0,0,0-1.13-.78"/><polygon class="cls-3" points="18.92 20.05 20.55 18.61 10.04 8.07 8.42 9.5 18.92 20.05"/><path class="cls-3" d="M8.34,9.5,10,8,20.63,18.62,19,20.09l0,0ZM18.92,20.05l0,0ZM8.5,9.5,18.92,20l1.55-1.37L10,8.14Z"/><g class="cls-6"><rect class="cls-7" x="182.06" y="1.43" width="100.77" height="26.16"/></g><path class="cls-8" d="M185.34,28.23h0a3.77,3.77,0,0,1-3.91-3.91V5.11c0-2.82,2.75-4.06,4.21-4.31H279a4.31,4.31,0,0,1,4.47,4.48V23.13c-.25,1.73-1.58,5-4.79,5Zm.46-26.15c-.41.08-3.1.72-3.1,3V24.32A2.53,2.53,0,0,0,185.33,27l93.34-.08c2.78,0,3.44-3.44,3.52-3.89V5.27A3.07,3.07,0,0,0,279,2.08Z"/><g class="cls-9"><g class="cls-10"><path class="cls-8" d="M185.34,28.23h0a3.77,3.77,0,0,1-3.91-3.91V5.11c0-2.82,2.75-4.06,4.21-4.31H279a4.31,4.31,0,0,1,4.47,4.48V23.13c-.25,1.73-1.58,5-4.79,5Zm.46-26.15c-.41.08-3.1.72-3.1,3V24.32A2.53,2.53,0,0,0,185.33,27l93.34-.08c2.78,0,3.44-3.44,3.52-3.89V5.27A3.07,3.07,0,0,0,279,2.08Z"/></g></g><g class="cls-9"><g class="cls-10"><g class="cls-11"><rect class="cls-12" x="181.42" y="0.79" width="102.04" height="27.44"/></g></g></g><rect class="cls-4" x="187.03" y="4.48" width="90.79" height="19.94"/><path class="cls-13" d="M278.46,25.06H186.38V3.85h92.08Zm-90.8-1.28h89.52V5.12H187.66Z"/><g class="cls-14"><g class="cls-15"><path class="cls-13" d="M278.46,25.06H186.38V3.85h92.08Zm-90.8-1.28h89.52V5.12H187.66Z"/></g></g><path class="cls-16" d="M193.28,9V8.12l1.13.1c.23,0,.34.09.34.18s-.09.18-.23.32V9h2.93V8.12l1.14.1c.21,0,.32.09.32.18s-.07.18-.21.32V9h3.24v1.08H198.7v.82h-1.25v-.82h-2.93v.82h-1.24v-.82h-3.42V9Zm7.58,2.22v1h-1.57v1.2h2.28v1.08h-2.28v1.36h2v1h-4.55v1h4.23V19h-4.23v1.62h-1.25V19h-4.38V17.88h4.38v-1h-4.7v-1h2V14.52H190.4V13.44h2.39v-1.2H191v-1Zm-5.42,1H194v1.2h1.46Zm0,2.28H194v1.36h1.46Zm2.66-2.28h-1.41v1.2h1.41Zm0,2.28h-1.41v1.36h1.41Z"/><path class="cls-16" d="M210.56,8.22q.36,0,.36.18c0,.08-.09.21-.27.38v1.36h5.25v1.19H214a10.15,10.15,0,0,1-1.34,4.28A11.31,11.31,0,0,1,211.53,17a27.69,27.69,0,0,0,4.59,2.36L215,20.59A26.22,26.22,0,0,1,210.51,18q-.37.29-.75.54a18.34,18.34,0,0,1-4.63,2.05l-1.36-1.08a15.53,15.53,0,0,0,4.75-1.79c.32-.19.63-.39.91-.59a8.63,8.63,0,0,1-.91-.9,10.27,10.27,0,0,1-2.35-4.9H204.1V10.14h5.2v-2Zm-.88,7.33a6.45,6.45,0,0,0,.76.69,7.13,7.13,0,0,0,.86-1.06,8.51,8.51,0,0,0,1.3-3.85h-5.17a8.05,8.05,0,0,0,2.25,4.22"/><path class="cls-16" d="M219.4,14.68V13.12c0-.25,0-.57,0-.93l1.19.08c.21,0,.32.06.32.14s-.11.26-.32.37v1.9H222V12.19l1.09.09c.21,0,.32.09.32.19s-.08.15-.22.26v1.95h1.3v1.09h-1.3v4.49H222V15.77h-1.41a7.83,7.83,0,0,1-.27,2.2,4.37,4.37,0,0,1-.75,1.45,7.58,7.58,0,0,1-.93.95l-1-.86a5.66,5.66,0,0,0,.82-.72,3.66,3.66,0,0,0,.66-1.05,5.72,5.72,0,0,0,.29-2h-1.62V14.68Zm5.4-4.38c0-.71,0-1.47,0-2.29l1.24.14c.19,0,.29.11.29.2s-.12.23-.34.43c0,.55,0,1.07,0,1.52h2.37a10.14,10.14,0,0,0-1.46-1.47l.81-.76a12.37,12.37,0,0,1,1.73,1.68l-.58.55h1.07v1.14H226a20.57,20.57,0,0,0,.36,3.58,9.93,9.93,0,0,0,.4,1.44c.14-.19.26-.42.39-.64a17.08,17.08,0,0,0,1.25-3l1.2.52a.26.26,0,0,1,.15.25c0,.1-.13.18-.38.26a18.88,18.88,0,0,1-1.64,3.41c-.14.2-.26.36-.39.52a2.17,2.17,0,0,0,.31.51c.43.67.79,1,1.06,1,.07,0,.16-.06.24-.22a8.53,8.53,0,0,0,.53-1.73l1,.82a9,9,0,0,1-.67,1.8c-.3.5-.62.75-.95.75a1.89,1.89,0,0,1-1.23-.6,6,6,0,0,1-1.12-1.4c-.08.09-.15.14-.21.2a13.36,13.36,0,0,1-1.68,1.26l-.91-1a7.79,7.79,0,0,0,1.77-1.22,2.54,2.54,0,0,0,.43-.37,12.13,12.13,0,0,1-.85-3.25c-.1-.75-.17-1.69-.21-2.84h-6.77V10.3Z"/><path class="cls-16" d="M235.5,11c.19,0,.3.08.3.18s-.07.15-.2.26v.93h2.48v1.08H234.6c0,.45,0,.86-.06,1.25h2.79l-.17-.11a9.32,9.32,0,0,0,3.19-3.58l1.07.36c.11,0,.18.1.18.18s-.11.17-.32.28a1.63,1.63,0,0,1-.15.25,10,10,0,0,0,1.52,1.4,11.25,11.25,0,0,0,1.82,1.11l-.86.87a9.56,9.56,0,0,1-1.83-1.29A8.29,8.29,0,0,1,240.57,13a12,12,0,0,1-2.27,2.41l-.82-.55a20.83,20.83,0,0,1-.24,4.14,1.68,1.68,0,0,1-.66,1.16,3.61,3.61,0,0,1-1.8.34l-.54-1.19a3.49,3.49,0,0,0,1.52-.18,1.11,1.11,0,0,0,.38-.68,12.67,12.67,0,0,0,.2-2.66h-1.88c0,.36-.08.69-.14,1a11.8,11.8,0,0,1-.6,2.26,5.56,5.56,0,0,1-.94,1.59l-1-.81a4,4,0,0,0,1-1.39,8.92,8.92,0,0,0,.55-2,20.14,20.14,0,0,0,.26-2.91h-1.38V12.41h2.27V10.94Zm-.39-1.83V8.07l1.1.1c.19,0,.3.08.3.18s-.07.15-.21.26v.6h3.3V8.07l1.1.1c.19,0,.3.08.3.18s-.06.15-.2.26v.6h3.3V10.3h-3.3v.64h-1.2V10.3h-3.3v.54h-1.19V10.3H232V9.21Zm8.34,10.45-.81.88a33.28,33.28,0,0,0-4.56-2.22l.87-.87a27.37,27.37,0,0,1,4.5,2.21m-.32-3-.77.82A27.78,27.78,0,0,0,239.12,16l.8-.82a19.37,19.37,0,0,1,3.21,1.51"/><path class="cls-16" d="M247.45,16.54c.09,0,.15.06.15.14a.48.48,0,0,1-.21.34,18.7,18.7,0,0,1-.65,2.65l-1.08-.38a7.42,7.42,0,0,0,.4-1.18,14.45,14.45,0,0,0,.34-1.86ZM249,8.6c.12.07.19.12.19.18s-.07.19-.21.27l-1.31,1.81.79.58.9-1.36.88.58a.28.28,0,0,1,.14.24c0,.08-.09.12-.26.15l-2.2,3c.49,0,1-.1,1.47-.15-.09-.23-.17-.45-.25-.67l1-.21a15.8,15.8,0,0,1,.54,1.65v-6H258V19.4a1,1,0,0,1-.82,1,5.34,5.34,0,0,1-1.29.18l-.43-1.08,1,0c.3,0,.45-.15.45-.41V15.34h-3v1.51c0,.11.08.17.28.17h2.38v1h-2.92c-.56,0-.82-.21-.82-.66v-2h-.92v5.25h-1.13V19.15l-.93.2a27.47,27.47,0,0,0-.65-2.88l1.09-.22c.19.7.36,1.35.49,2V15.42l-.88.18c-.05-.25-.11-.48-.16-.71A7.48,7.48,0,0,1,249,15v5.59h-1.14V15.16l-1.36.18c-.1.14-.18.21-.26.21s-.14-.06-.14-.19l-.25-1.1c.28,0,.57,0,.84-.06l1.2-1.8q-1.12-.86-2-1.5l.65-.87a2.65,2.65,0,0,1,.37.25l1.31-2.16Zm3.87,3.33a14.66,14.66,0,0,0-.75-1.59l1-.2a9.06,9.06,0,0,1,.82,1.79h.82l.69-1.79.85.16c.15,0,.23.07.23.16a.46.46,0,0,1-.22.33l-.5,1.14h1.1V9.71h-5v2.22Zm.88,1h-1.9v1.41h1.9Zm3.14,0h-2.05v1.41h2.05Z"/><path class="cls-17" d="M264.86,17.17a4,4,0,1,1,4-4,4,4,0,0,1-4,4m0-7.21a3.21,3.21,0,1,0,3.21,3.2,3.22,3.22,0,0,0-3.21-3.2"/><polygon class="cls-17" points="267.75 15.33 271.98 19.41 270.26 20.89 266.61 16.57 267.75 15.33"/></g></g></g></svg>